<svg id="Layer_1" data-name="Layer 1" xmlns="http://www.w3.org/2000/svg" viewBox="0 0 10.02 10.02"><defs><style>.cls-1{fill:#ff6e00;}</style></defs><path class="cls-1" d="M7,6.55l1.1,1.1L9,6.8,7.87,5.68A1.56,1.56,0,0,0,6.8,5.27a1.49,1.49,0,0,0-1,.44,1.09,1.09,0,0,1-.39.23A1,1,0,0,1,4.9,6a.91.91,0,0,1-.41-.19,1,1,0,0,1-.27-.36A.89.89,0,0,1,4.15,5a.86.86,0,0,1,.15-.43.83.83,0,0,1,.34-.3.83.83,0,0,1,.44-.12.89.89,0,0,1,.36.07.79.79,0,0,1,.31.2h0a1.54,1.54,0,0,0,1.06.4,1.56,1.56,0,0,0,1-.44,1.54,1.54,0,0,0,.07-2.1h0A4,4,0,0,0,3.61,1.3,4,4,0,0,0,1.79,2.69,3.91,3.91,0,0,0,1,4.85a4,4,0,0,0,.57,2.21,3.94,3.94,0,0,0,1.7,1.53A4,4,0,0,0,5.58,9,4,4,0,0,0,7.68,8l-.8-.79,0,0H6.81l0,0a2.8,2.8,0,0,1-1.19.53,2.86,2.86,0,0,1-1.3-.07A2.8,2.8,0,0,1,3.17,7a2.9,2.9,0,0,1-.71-1.09,2.83,2.83,0,0,1-.12-1.29,2.81,2.81,0,0,1,.49-1.2,2.88,2.88,0,0,1,1-.85,2.79,2.79,0,0,1,1.27-.3,2.76,2.76,0,0,1,1.06.19,2.73,2.73,0,0,1,.9.6h0A.32.32,0,0,1,7,3.51a.28.28,0,0,1-.21.07.33.33,0,0,1-.21-.09h0a2.09,2.09,0,0,0-1.11-.55,2.17,2.17,0,0,0-1.23.15,2.21,2.21,0,0,0-.94.8,2.06,2.06,0,0,0-.34,1.18,2.12,2.12,0,0,0,.36,1.17,2.15,2.15,0,0,0,1,.78,2.19,2.19,0,0,0,1.24.12,2.1,2.1,0,0,0,1.09-.57h0a.31.31,0,0,1,.22-.09A.35.35,0,0,1,7,6.55Z"/></svg>