<svg id="Layer_1" data-name="Layer 1" xmlns="http://www.w3.org/2000/svg" viewBox="0 0 10.02 10.02"><defs><style>.cls-1{fill:#fff;}</style></defs><path class="cls-1" d="M7.55,7,8.94,8.33,10,7.26,8.61,5.86a1.93,1.93,0,0,0-2.67,0,1.36,1.36,0,0,1-.49.29,1.14,1.14,0,0,1-.58,0A1.24,1.24,0,0,1,4.35,6,1.18,1.18,0,0,1,4,5.51a1.11,1.11,0,0,1-.09-.57,1.25,1.25,0,0,1,.19-.53A1.24,1.24,0,0,1,4.54,4a1.19,1.19,0,0,1,.56-.14A1.24,1.24,0,0,1,5.56,4,1.36,1.36,0,0,1,6,4.21H6a2,2,0,0,0,1.34.5A1.91,1.91,0,0,0,8.6,4.16a1.88,1.88,0,0,0,.57-1.3,1.9,1.9,0,0,0-.49-1.34h0A5.1,5.1,0,0,0,3.25.33,5,5,0,0,0,.72,7.59a5.07,5.07,0,0,0,7.65,1.2l-1-1,0,0H7.27l0,0a3.49,3.49,0,0,1-3.14.58,3.38,3.38,0,0,1-1.42-.82A3.36,3.36,0,0,1,1.8,6.18,3.46,3.46,0,0,1,3.5,2a3.41,3.41,0,0,1,1.6-.39,3.41,3.41,0,0,1,2.47,1h0a.46.46,0,0,1,.06.28.38.38,0,0,1-.15.24.42.42,0,0,1-.27.09A.39.39,0,0,1,7,3.09H7a2.77,2.77,0,0,0-1.4-.69A2.73,2.73,0,0,0,4,2.58a2.7,2.7,0,0,0-1.19,1,2.73,2.73,0,0,0-.44,1.49,2.7,2.7,0,0,0,.47,1.48,2.6,2.6,0,0,0,1.21,1,2.74,2.74,0,0,0,1.55.16A2.71,2.71,0,0,0,7,7H7a.41.41,0,0,1,.28-.11A.39.39,0,0,1,7.55,7Z"/></svg>