<?xml version="1.0" encoding="utf-8"?>
<!-- Generator: Adobe Illustrator 17.1.0, SVG Export Plug-In . SVG Version: 6.00 Build 0)  -->
<!DOCTYPE svg PUBLIC "-//W3C//DTD SVG 1.1//EN" "http://www.w3.org/Graphics/SVG/1.1/DTD/svg11.dtd">
<svg version="1.1" id="Слой_1" xmlns="http://www.w3.org/2000/svg" xmlns:xlink="http://www.w3.org/1999/xlink" x="0px" y="0px"
	 width="180px" height="63px" viewBox="0 0 180 63" enable-background="new 0 0 180 63" xml:space="preserve">
<g>
	<path fill="#A6CE39" d="M177.5,30.5c-0.2,1.5-0.6,3-2.9,3c0,0-1.6,0-4.2,0c-0.3,0-0.9,0.2-1.2,1c-1,3.5-4.2,6-8,6
		c-3.9,0-7.1-2.6-8-6.2c-0.1-0.4-0.3-0.8-1-0.8c-0.7,0-10.7,0-16.2,0c-1.8,0.1-2.4,0.9-4,2.6c-2,2.1-15.1,15.6-17.3,17.9
		c-1.8,1.9-4.7,1.3-4.5-2.3c0.2-2.4,1.5-17,1.5-17.5c0-0.5-0.1-0.7-0.6-0.7c-0.7,0-4.3,0-4.3,0c-2,0-3.4-0.9-3.8-2.7
		c-0.5-1.8-1.7-6.9-0.9-8.5c0.6-1.2,1.2-2.3,1.8-3.4c0.7-1.2,0.1-2.6-0.8-3.4c-0.7-0.6-0.5-2.1,0.8-2.1h3.2c0.8,0,1.7-1,1.7-1
		c7.7-7.8,18.8-10.5,33.2-9.9c5.4,0.2,13.4,9.4,14.6,10.8c0.1,0.1,0.2,0.2,0.3,0.2c1.2,0.1,7.2,0.8,13.1,3.5c4.5,2.1,7,4.1,7.7,7.5
		C178,25.6,177.7,29.1,177.5,30.5z"/>
	<g>
		<g>
			<path fill="#414042" d="M5.4,34.6c1.4-0.6,2.7-0.9,4.1-0.9c3.8,0,6.4,2.2,6.4,6.4c0,3.4-1.4,10.7-8,10.7c-5.1,0-5.8-3.5-5.8-4.8
				c0-2.5,1.6-6.8,7.2-6.8c1.1,0,2,0.2,3,0.7c0-0.3,0-0.5,0-0.8c0-0.3-0.1-3.7-4-3.7c-0.8,0-1.4,0.2-2.2,0.5L5.4,34.6z M10.1,41.3
				c-2.3,0-4.3,2.1-4.3,5.2c0,1.6,0.8,2.3,2,2.3c2.5,0,3.7-3.9,4.2-6.9C11.5,41.6,10.8,41.3,10.1,41.3z"/>
			<path fill="#414042" d="M22.9,39.4c2.9,0,5.4,0.5,5.4,2.8c0,0.9-0.5,2.1-2.8,2.5v0.1c1,0.1,2.4,0.7,2.4,2.1c0,1.1-0.6,4-6.8,4
				c-4.1,0-5.3-0.7-5.3-2.6c0-0.8,0.2-1.4,0.3-2.1l0.6-2.9C17,41.4,17.9,39.4,22.9,39.4z M24.1,47.1c0-1.3-1.4-1.4-2.1-1.4h-2.4
				L19.3,47c0,0.2-0.1,0.4-0.1,0.6c0,1.3,1.2,1.3,2.1,1.3C21.6,48.9,24.1,48.9,24.1,47.1z M22.2,43.9c0.8,0,2.4-0.1,2.4-1.4
				c0-0.5-0.3-1.1-2-1.1c-1.9,0-2.3,1-2.5,2.1l-0.1,0.4H22.2z"/>
			<path fill="#414042" d="M40.4,48.4c-0.2,0.1-0.4,0.1-0.5,0.1c-0.7,0-0.8-0.6-0.8-0.8c0-0.1,0-0.2,0-0.3l1.3-7.9h-3.4l-1.4,8.1
				c-0.6,0.5-1.3,0.8-2,0.8c-1.4,0-1.4-0.8-1.4-1.1c0-0.2,0-0.4,0.1-0.6l1.4-7.2h-1.2c-1.2,0-3-0.1-3.3,2.2c0,0,0.5,0.5,0.4,1.3
				c-0.1,0.5-0.8,4.3-0.8,4.3c-0.1,0.5-0.1,0.9-0.1,1.4c0,2,2.1,2.2,3.2,2.2c1.7,0,3-0.8,3.7-1.3c0.4,0.9,1.4,1.3,2.6,1.3
				c0.5,0,1.2-0.1,1.8-0.4c0,0,0.4-1.4,0.6-1.7C40.7,48.5,40.6,48.3,40.4,48.4z"/>
			<path fill="#414042" d="M63.2,39.6c-0.6-0.1-1.2-0.2-1.8-0.2c-3.5,0-5.7,2.1-6.6,4.5h-1.1l0.8-3.9l0,0c0-0.2,0.2-0.2,0.2-0.2
				c0.2,0,0.3-0.1,0.3-0.2c0-0.1,0.1-0.5,0.1-0.6c-0.1,0-1,0-1.6,0c-1.1,0-2.4,0.6-2.6,1.9c-0.1,0.7-0.6,3-0.6,3h-1.1
				c-0.1-2.9-2.1-4.3-4.8-4.5c-0.5,0-1.1,0-1.4,0c-0.1,0-0.8,0.1-0.9,0.2c-0.1,0.1-0.2,0.2-0.2,0.3c-0.1,0.8-0.1,1.7-0.1,1.9
				c0,0.2,0.3,0.5,0.5,0.2h0c0.3-0.3,0.8-0.5,1.1-0.6c0.2,0,1.4-0.1,1.8,0.6c0.3,0.6,0.3,1.1,0.3,1.3c0,2.9-1.2,5.6-3.2,5.6
				c-0.1,0-0.2,0-0.3,0c-0.2,0-0.4,0-0.5,0.4c-0.1,0.3-0.3,1.5-0.3,1.5c0.3,0,0.7,0.1,1,0.1c3.5,0,6-2.3,6.8-5h1l-1.1,5.5
				c0,0,0.2,0,1.2,0c1.2,0,2.3-0.9,2.6-2c0.2-1.1,0.7-3.5,0.7-3.5h1.1c0,0.1,0,0.2,0,0.3c0,1.6,0.5,4.7,5.3,4.7
				c0.9,0,1.7-0.1,2.4-0.4c0,0-0.8-1.5-0.9-1.7c-0.1-0.3-0.4-0.2-0.5-0.2c-0.3,0.1-0.6,0.2-1,0.2c-0.8,0-1.7-0.4-1.7-1.9
				c0-1.3,0.6-5.6,3.2-5.6c0.2,0,0.4,0,0.6,0.1c0.2,0.1,0.4,0,0.5-0.1c0.3-0.4,0.8-1.2,0.9-1.3C63.4,39.8,63.3,39.6,63.2,39.6z"/>
			<path fill="#414042" d="M74.7,48.3c-0.2,0-0.3,0-0.4,0c-1.4,0-2.3-1.9-3.4-5.2c0.3-0.3,1.4-1.3,2.7-1.6c0.7-0.2,1.3-0.2,1.8-0.1
				c0.6,0.1,1.1-0.1,1.3-0.8c0.2-0.7,0.3-1,0.3-1s-1.4-0.4-3.1-0.1c-2.1,0.4-3.4,1.6-3.7,2l0,0c-1,0.9-2,2.1-3.1,3.7l1-5.6h0h-1.1h0
				c0,0,0,0,0,0c-1.2,0-2.9,0-3.2,2.2c0,0,0.5,0.4,0.4,1.1l-1.3,7.9c0,0,1.3,0,2.1,0c0.8,0,1.5-0.5,1.6-1.3c0.2-0.8,0.5-2.3,1.9-3.8
				c1.2,5,3.3,5.3,4.2,5.3c1.1,0,2.2-0.5,3.1-0.9c0.3-0.2,0.5-0.3,0.7-0.5c0,0-0.2-0.4-0.5-0.7C75.4,48.3,75,48.2,74.7,48.3z"/>
			<path fill="#414042" d="M104.3,48.2c-0.2,0.1-0.4,0.1-0.5,0.1c-0.7,0-0.8-0.6-0.8-0.8c0-0.1,0-0.2,0-0.3c0,0,0.7-4.2,0.8-4.9
				c0.2-1.1,0.9-1.6,0.9-1.6l0.2-1.3c0,0-2.1,0-3.1,0c-1,0-2,0.4-2.7,1.5c-0.7,1.1-3.4,5-3.4,5h-0.1c0,0-0.8-3.7-1-4.7
				c-0.2-0.8-0.5-1.8-2-1.8c-0.8,0-2.5,0-2.5,0l-0.4,1.3c0,0,0.8,0.5,0.5,1.8c-0.6,2.5-1,4-1.6,4.8c-0.3,0.5-0.6,0.8-1.4,1
				c-0.2,0-0.4,0.1-0.4,0.5c0,0.2-0.2,1.5-0.2,1.5c0.4,0.1,0.7,0.1,0.9,0.1c3.2,0.2,4.2-3.1,4.8-6.9c0,0,0.8,4,1.1,5.4
				c0.2,1.1,0.3,1.4,0.3,1.4l0.5,0c0,0,1.4,0.2,2.5-1.7c0.5-0.8,3.4-5.1,3.4-5.1l-0.7,3.8c0,0.3-0.1,0.6-0.1,0.9
				c0,0.4,0,2.4,2.7,2.4c1,0,2.3-0.3,3.7-1.6C105.9,49,105.4,47.7,104.3,48.2z"/>
			<path fill="#414042" d="M76,46.1c0-3.1,2.4-6.8,7-6.8c3.1,0,5.4,1.5,5.4,4.6c0,3.6-2.8,6.9-7.1,6.9C76.5,50.8,76,47.8,76,46.1z
				 M84.6,43.2c0-0.4,0-1.9-1.7-1.9c-2.6,0-3.2,4.3-3.2,5.6c0,1.5,0.9,1.9,1.7,1.9C83.4,48.9,84.6,46.2,84.6,43.2z"/>
		</g>
		<g display="none">
			<path display="inline" fill="#414042" d="M45.2,58c0-0.5-0.1-1.2-0.1-1.7h0c-0.1,0.4-0.3,0.9-0.5,1.5L44,59.6h-0.4L43,57.8
				c-0.2-0.5-0.3-1-0.4-1.5h0c0,0.5,0,1.1-0.1,1.7l-0.1,1.6h-0.5l0.3-3.8h0.6l0.7,1.8c0.2,0.5,0.3,0.9,0.4,1.3h0
				c0.1-0.4,0.2-0.8,0.4-1.3l0.7-1.8h0.6l0.2,3.8h-0.5L45.2,58z"/>
			<path display="inline" fill="#414042" d="M47.1,58.4l-0.4,1.2h-0.5l1.3-3.8h0.6l1.3,3.8h-0.5l-0.4-1.2H47.1z M48.4,58.1L48,57
				c-0.1-0.3-0.1-0.5-0.2-0.7h0c-0.1,0.2-0.1,0.5-0.2,0.7l-0.4,1.1H48.4z"/>
			<path display="inline" fill="#414042" d="M52,55.8v0.4h-1.5v3.4H50v-3.8H52z"/>
			<path display="inline" fill="#414042" d="M52.6,58.4l-0.4,1.2h-0.5l1.3-3.8h0.6l1.3,3.8h-0.5l-0.4-1.2H52.6z M53.8,58.1L53.4,57
				c-0.1-0.3-0.1-0.5-0.2-0.7h0c-0.1,0.2-0.1,0.5-0.2,0.7l-0.4,1.1H53.8z"/>
			<path display="inline" fill="#414042" d="M55.3,56.1c0.3-0.2,0.6-0.3,1-0.3c0.7,0,1.1,0.3,1.1,0.9c0,0.5-0.3,0.8-0.8,0.9v0
				c0.5,0.1,0.9,0.4,0.9,1c0,0.8-0.7,1.1-1.4,1.1c-0.3,0-0.7-0.1-1-0.2l0.1-0.4c0.2,0.1,0.5,0.2,0.9,0.2c0.6,0,0.9-0.3,0.9-0.7
				c0-0.6-0.5-0.7-1-0.7h-0.2v-0.4H56c0.5,0,0.9-0.3,0.9-0.7c0-0.4-0.3-0.6-0.7-0.6c-0.3,0-0.6,0.1-0.8,0.3L55.3,56.1z"/>
			<path display="inline" fill="#414042" d="M58.7,55.8v1.6c0,0.6,0,1.1,0,1.6l0,0c0.2-0.4,0.4-0.8,0.7-1.3l1.2-2h0.5v3.8h-0.5V58
				c0-0.6,0-1.1,0-1.6l0,0c-0.2,0.4-0.4,0.9-0.7,1.3l-1.2,1.9h-0.5v-3.8H58.7z"/>
			<path display="inline" fill="#414042" d="M62.5,55.8v1.6h1.8v-1.6h0.5v3.8h-0.5v-1.8h-1.8v1.8H62v-3.8H62.5z"/>
			<path display="inline" fill="#414042" d="M66.2,55.8v1.4c0.1,0,0.3,0,0.5,0c0.8,0,1.5,0.3,1.5,1.2c0,0.4-0.1,0.6-0.3,0.8
				c-0.3,0.3-0.8,0.4-1.4,0.4c-0.3,0-0.6,0-0.8,0v-3.8H66.2z M66.2,59.3c0.1,0,0.2,0,0.4,0c0.5,0,1-0.3,1-0.9c0-0.6-0.5-0.8-1-0.8
				c-0.2,0-0.3,0-0.4,0V59.3z M69,55.8v3.8h-0.5v-3.8H69z"/>
			<path display="inline" fill="#414042" d="M73.7,55.8v3.4l0.3,0l0,1.3h-0.4l0-0.9h-2.4l0,0.9h-0.4l0-1.3l0.3,0
				c0.1-0.3,0.3-0.5,0.4-0.8c0.1-0.4,0.2-1,0.2-1.6v-1H73.7z M72,57c0,0.6-0.1,1.1-0.2,1.6c-0.1,0.3-0.2,0.5-0.3,0.7h1.7v-3H72V57z"
				/>
			<path display="inline" fill="#414042" d="M77.2,55.8v3.8h-0.5v-3.4h-1.3v1.2c0,0.8,0,1.8-0.6,2.1c-0.1,0.1-0.4,0.2-0.6,0.2
				l-0.1-0.4c0.2,0,0.3-0.1,0.4-0.2c0.3-0.3,0.3-1,0.3-1.7v-1.6H77.2z"/>
			<path display="inline" fill="#414042" d="M77.8,59.6c0.1-0.1,0.1-0.2,0.2-0.3c0.2-0.4,0.3-1,0.6-1.3c0.1-0.1,0.2-0.2,0.3-0.2v0
				c-0.5-0.1-0.8-0.4-0.8-0.9c0-0.3,0.1-0.6,0.4-0.8c0.2-0.2,0.6-0.3,1.1-0.3c0.3,0,0.7,0,0.9,0.1v3.8h-0.5V58h-0.4
				c-0.2,0-0.4,0.1-0.6,0.2c-0.3,0.3-0.4,0.8-0.5,1.2c0,0.1-0.1,0.2-0.1,0.3H77.8z M79.8,56.2c-0.1,0-0.2,0-0.5,0
				c-0.5,0-0.9,0.2-0.9,0.7c0,0.5,0.4,0.7,0.9,0.7c0.2,0,0.3,0,0.4,0V56.2z"/>
			<path display="inline" fill="#414042" d="M85.6,58c0-0.5-0.1-1.2-0.1-1.7h0c-0.1,0.4-0.3,0.9-0.5,1.5l-0.7,1.9H84l-0.6-1.8
				c-0.2-0.5-0.3-1-0.4-1.5h0c0,0.5,0,1.1-0.1,1.7l-0.1,1.6h-0.5l0.3-3.8h0.6l0.7,1.8c0.2,0.5,0.3,0.9,0.4,1.3h0
				c0.1-0.4,0.2-0.8,0.4-1.3l0.7-1.8h0.6l0.2,3.8h-0.5L85.6,58z"/>
			<path display="inline" fill="#414042" d="M87.5,58.4l-0.4,1.2h-0.5l1.3-3.8h0.6l1.3,3.8h-0.5l-0.4-1.2H87.5z M88.8,58.1L88.4,57
				c-0.1-0.3-0.1-0.5-0.2-0.7h0C88.1,56.5,88,56.7,88,57l-0.4,1.1H88.8z"/>
			<path display="inline" fill="#414042" d="M90.8,55.8v3.4h1.2v-3.4h0.5v3.4h1.2v-3.4h0.5v3.8h-3.9v-3.8H90.8z"/>
			<path display="inline" fill="#414042" d="M95.6,55.8v1.6c0,0.6,0,1.1,0,1.6l0,0c0.2-0.4,0.4-0.8,0.7-1.3l1.2-2H98v3.8h-0.5V58
				c0-0.6,0-1.1,0-1.6l0,0c-0.2,0.4-0.4,0.9-0.7,1.3l-1.2,1.9h-0.5v-3.8H95.6z"/>
			<path display="inline" fill="#414042" d="M99.4,55.8v1.6h1.8v-1.6h0.5v3.8h-0.5v-1.8h-1.8v1.8h-0.5v-3.8H99.4z"/>
			<path display="inline" fill="#414042" d="M103,55.8v1.4c0.1,0,0.3,0,0.5,0c0.8,0,1.5,0.3,1.5,1.2c0,0.4-0.1,0.6-0.3,0.8
				c-0.3,0.3-0.8,0.4-1.4,0.4c-0.3,0-0.6,0-0.8,0v-3.8H103z M103,59.3c0.1,0,0.2,0,0.4,0c0.5,0,1-0.3,1-0.9c0-0.6-0.5-0.8-1-0.8
				c-0.2,0-0.3,0-0.4,0V59.3z M105.9,55.8v3.8h-0.5v-3.8H105.9z"/>
		</g>
	</g>
</g>
</svg>
