<svg id="Layer_1" data-name="Layer 1" xmlns="http://www.w3.org/2000/svg" viewBox="0 0 101.6 67"><path d="M0,34.6c0,5.3,4,9,9.6,9H45.3V36.1L43,33.2H13.2a2.84,2.84,0,0,1-2.9-2.9v-17a2.84,2.84,0,0,1,2.9-2.9h30L45.4,8V0H9.6C4,0,0,3.7,0,9Z"/><path d="M90.1,43.6h10.6V40L91.8,29.8l1.2-.1c5.1-.4,8.6-4.1,8.6-9V9c0-4.5-3.3-9-9.6-9H54V43.6H64.3V29.8H78.7ZM64.3,10.5H88.5a2.84,2.84,0,0,1,2.9,2.9v3a2.84,2.84,0,0,1-2.9,2.9H64.3Z"/><path d="M6.4,64.1H7.9a1.42,1.42,0,0,1-.2.6,5.9,5.9,0,0,1-.4.8,2.34,2.34,0,0,1-.7.7,2.34,2.34,0,0,1-1,.5,2.13,2.13,0,0,1-1.2.3,3.69,3.69,0,0,1-2.7-1.1,4.37,4.37,0,0,1,0-5.8A3.34,3.34,0,0,1,4.4,59a5,5,0,0,1,1.2.2,1.93,1.93,0,0,1,.9.5,2.34,2.34,0,0,1,.7.7,3,3,0,0,1,.4.8,1.85,1.85,0,0,1,.2.7H6.4a2.29,2.29,0,0,0-.7-1,1.84,1.84,0,0,0-1.3-.4,2.19,2.19,0,0,0-1.7.7,2.79,2.79,0,0,0,0,3.7,2.06,2.06,0,0,0,1.7.7,1.84,1.84,0,0,0,1.3-.4A2.59,2.59,0,0,0,6.4,64.1Z"/><path d="M8.2,66.9,11,59.1h2.1l2.8,7.8H14.3l-.6-1.7H10.4l-.6,1.7Zm2.7-3h2.3l-1.1-3.1H12Z"/><path d="M16.9,66.9V59.1h3.6a2.41,2.41,0,0,1,1.8.7,2.49,2.49,0,0,1,.7,1.9,2.41,2.41,0,0,1-.7,1.8,2,2,0,0,1-1.6.7l2.5,2.7H21.4l-2.5-2.7h-.4v2.7Zm1.5-4h2.1a.91.91,0,0,0,.7-.3,1.14,1.14,0,0,0,.3-.8,1.22,1.22,0,0,0-.3-.9,1.08,1.08,0,0,0-.7-.3H18.4Z"/><path d="M26.2,66.9l-2.7-7.8h1.6l2,6h.2l2-6H31l-2.7,7.8Z"/><path d="M32.1,66.9V59.1h1.5v7.8Z"/><path d="M35.4,66.9V59.1h1.5v6.4h3.7v1.4Z"/><path d="M41.7,66.9V59.1h1.5v6.4h3.7v1.4Z"/><path d="M48.1,66.9V59.1h5.2v1.3H49.5v1.9h3.6v1.3H49.5v1.9h3.8v1.3H48.1Z"/><path d="M57.9,66.9V59.1h3.6a2.41,2.41,0,0,1,1.8.7,2.49,2.49,0,0,1,.7,1.9,2.41,2.41,0,0,1-.7,1.8,2,2,0,0,1-1.6.7l2.5,2.7H62.4l-2.5-2.7h-.4v2.7Zm1.5-4h2.1a.91.91,0,0,0,.7-.3,1.14,1.14,0,0,0,.3-.8,1.22,1.22,0,0,0-.3-.9,1.08,1.08,0,0,0-.7-.3H59.4Z"/><path d="M64.7,66.9l2.8-7.8h2.1l2.8,7.8H70.8l-.6-1.7H66.9l-.6,1.7Zm2.7-3h2.3l-1.1-3.1h-.2Z"/><path d="M78.7,64.1h1.5a1.42,1.42,0,0,1-.2.6,5.9,5.9,0,0,1-.4.8,3.29,3.29,0,0,1-1.7,1.2,5.07,5.07,0,0,1-1.3.2,3.69,3.69,0,0,1-2.7-1.1,4.37,4.37,0,0,1,0-5.8,3.34,3.34,0,0,1,2.7-1.1,5,5,0,0,1,1.2.2,1.93,1.93,0,0,1,.9.5,2.34,2.34,0,0,1,.7.7,3,3,0,0,1,.4.8,1.85,1.85,0,0,1,.2.7H78.5a2.29,2.29,0,0,0-.7-1,1.84,1.84,0,0,0-1.3-.4,2.19,2.19,0,0,0-1.7.7,2.94,2.94,0,0,0-.7,1.9,2.49,2.49,0,0,0,.7,1.9,2.06,2.06,0,0,0,1.7.7,1.84,1.84,0,0,0,1.3-.4A2.33,2.33,0,0,0,78.7,64.1Z"/><path d="M81.6,66.9V59.1H83v7.8Z"/><path d="M84.9,66.9V59.1h2l2.8,5.4h.2V59.1h1.5v7.8h-2l-2.8-5.4h-.2v5.4Z"/><path d="M99.1,66.9,99,66h-.1a1,1,0,0,1-.6.5,3.37,3.37,0,0,1-1.7.5,3.69,3.69,0,0,1-2.7-1.1,4.37,4.37,0,0,1,0-5.8A3.34,3.34,0,0,1,96.6,59a3.19,3.19,0,0,1,1.4.3,4.13,4.13,0,0,1,1.1.7,5.5,5.5,0,0,1,.7.9,3,3,0,0,1,.4,1H98.7a2.13,2.13,0,0,0-2-1.4,2.19,2.19,0,0,0-1.7.7,2.94,2.94,0,0,0-.7,1.9A2.49,2.49,0,0,0,95,65a2.06,2.06,0,0,0,1.7.7,2.39,2.39,0,0,0,.9-.2,1.79,1.79,0,0,0,.7-.5c.2-.2.3-.4.4-.5a.9.9,0,0,0,.1-.5v-.1h-2V62.8h3.4v4.1Z"/></svg>